<svg width="128" height="128" viewBox="0 0 128 128" fill="none" xmlns="http://www.w3.org/2000/svg">
<path d="M13.3335 63.9999C13.3335 40.1154 13.3335 28.1732 20.7534 20.7532C28.1734 13.3333 40.1157 13.3333 64.0002 13.3333C87.8844 13.3333 99.8268 13.3333 107.247 20.7532C114.667 28.1732 114.667 40.1154 114.667 63.9999C114.667 87.8842 114.667 99.8266 107.247 107.247C99.8268 114.667 87.8844 114.667 64.0002 114.667C40.1157 114.667 28.1734 114.667 20.7534 107.247C13.3335 99.8266 13.3335 87.8842 13.3335 63.9999Z" stroke="#1E1E1E" stroke-width="8"/>
<path d="M62.5726 64V85.3333C62.5726 91.2245 57.7972 96 51.9062 96C47.958 96 44.5108 93.8549 42.6665 90.6667" stroke="#1E1E1E" stroke-width="8" stroke-linecap="round"/>
<path d="M98.4896 69.3333C96.6454 66.1451 93.1984 64 89.2502 64H86.5835C82.1648 64 78.5835 67.5819 78.5835 72C78.5835 76.4181 82.1648 80 86.5835 80H91.9168C96.335 80 99.9168 83.5819 99.9168 88C99.9168 92.4181 96.335 96 91.9168 96H89.2502C85.3019 96 81.8544 93.8549 80.0102 90.6667" stroke="#1E1E1E" stroke-width="8" stroke-linecap="round"/>
</svg>
