<svg width="80" height="80" viewBox="0 0 80 80" fill="none" xmlns="http://www.w3.org/2000/svg">
<g clip-path="url(#clip0_2055_148)">
<path d="M77.2858 34.5109L63.4058 10.4709C61.4458 7.08095 57.7958 4.97095 53.8758 4.97095H26.1158C22.1958 4.97095 18.5458 7.08095 16.5858 10.4709L2.70584 34.5109C0.74584 37.9009 0.74584 42.1209 2.70584 45.5109L16.5858 69.5509C18.5458 72.951 22.1958 75.0509 26.1158 75.0509H53.8758C57.7958 75.0509 61.4458 72.951 63.4058 69.5509L77.2858 45.5109C79.2458 42.1209 79.2458 37.9009 77.2858 34.5109ZM54.8758 53.7609C51.2958 57.7309 46.3858 60.0709 41.0458 60.3509C40.6858 60.3709 40.3358 60.3809 39.9758 60.3809C35.0258 60.3809 30.3158 58.5809 26.6058 55.2409C18.4058 47.8609 17.7358 35.1809 25.1258 26.9709C25.6958 26.3409 26.3058 25.7409 26.9558 25.1909C28.2058 24.1109 30.0958 24.2509 31.1858 25.5109C32.2658 26.7609 32.1158 28.6609 30.8558 29.7409C30.4158 30.1209 29.9858 30.5409 29.5858 30.9909C24.4158 36.7309 24.8758 45.6109 30.6258 50.7809C33.4058 53.2909 36.9858 54.5609 40.7358 54.3609C44.4758 54.1609 47.9158 52.5209 50.4158 49.7409C55.5858 44.0009 55.1158 35.1209 49.3758 29.9509C48.1458 28.8409 48.0458 26.9409 49.1558 25.7109C50.2658 24.4809 52.1558 24.3809 53.3958 25.4909C61.5958 32.8709 62.2558 45.5509 54.8758 53.7609ZM36.9958 38.9809V22.0209C36.9958 20.3609 38.3458 19.0209 39.9958 19.0209C41.6558 19.0209 42.9958 20.3609 42.9958 22.0209V38.9809C42.9958 40.6309 41.6558 41.9809 39.9958 41.9809C39.1758 41.9809 38.4158 41.6409 37.8758 41.1009C37.3358 40.5609 36.9958 39.8009 36.9958 38.9809ZM52.1158 128.721L45.9158 118.221C45.3558 117.271 44.5658 116.491 43.6458 115.951L43.4858 115.671H43.1458C42.2758 115.251 41.3058 115.021 40.3158 115.021H27.6858C26.6858 115.021 25.7258 115.251 24.8558 115.671H24.4158L24.1958 116.041C23.3458 116.581 22.6158 117.321 22.0858 118.221L15.8858 128.721C15.3158 129.691 15.0158 130.761 14.9858 131.841L14.8858 132.021L14.9858 132.201C15.0158 133.281 15.3158 134.351 15.8858 135.321L22.0858 145.821C22.6158 146.721 23.3458 147.461 24.2058 148.001L24.4158 148.361H24.8358C25.7158 148.791 26.6758 149.021 27.6858 149.021H40.3158C41.3158 149.021 42.2858 148.791 43.1658 148.361H43.4858L43.6358 148.101C44.5658 147.551 45.3558 146.781 45.9158 145.821L52.1158 135.321C52.7158 134.301 53.0158 133.161 53.0158 132.021C53.0158 130.881 52.7158 129.741 52.1158 128.721ZM29.6758 137.091C32.3358 139.491 36.4558 139.271 38.8458 136.611C41.2458 133.951 41.0258 129.831 38.3658 127.441C37.7458 126.881 37.6958 125.931 38.2558 125.321C38.8058 124.701 39.7558 124.651 40.3758 125.211C44.2658 128.711 44.5758 134.731 41.0758 138.621C39.2058 140.701 36.6158 141.761 34.0158 141.761C31.7458 141.761 29.4758 140.951 27.6658 139.321C23.7758 135.821 23.4558 129.801 26.9658 125.911C27.2358 125.611 27.5258 125.321 27.8258 125.061C28.4558 124.521 29.4058 124.601 29.9458 125.221C30.4858 125.851 30.4158 126.801 29.7858 127.341C29.5758 127.521 29.3758 127.711 29.1858 127.921C26.7958 130.581 27.0158 134.701 29.6758 137.091ZM32.5158 130.521V123.521C32.5158 122.691 33.1958 122.021 34.0158 122.021C34.8458 122.021 35.5158 122.691 35.5158 123.521V130.521C35.5158 131.351 34.8458 132.021 34.0158 132.021C33.1958 132.021 32.5158 131.351 32.5158 130.521ZM47.1458 197.481C47.0758 196.711 46.8458 195.961 46.4458 195.271L42.1158 187.771C41.7158 187.071 41.1758 186.491 40.5358 186.041L40.2358 185.521H39.6358C38.9258 185.191 38.1558 185.021 37.3558 185.021H28.6958C27.8958 185.021 27.1258 185.191 26.4158 185.521H25.8158L25.5158 186.041C24.8758 186.491 24.3358 187.071 23.9358 187.771L19.6058 195.271C19.2058 195.961 18.9758 196.711 18.9058 197.481L18.6058 198.001L18.8958 198.511C18.9658 199.291 19.1958 200.071 19.6058 200.771L23.9358 208.271C24.3458 208.981 24.9058 209.581 25.5558 210.031L25.8158 210.481H26.3258C27.0558 210.831 27.8658 211.021 28.6958 211.021H37.3558C38.1858 211.021 38.9958 210.831 39.7258 210.481H40.2358L40.4958 210.031C41.1458 209.581 41.7058 208.981 42.1158 208.271L46.4458 200.771C46.8558 200.071 47.0858 199.291 47.1558 198.511L47.4458 198.001L47.1458 197.481ZM30.0558 201.531C31.8758 203.161 34.6858 203.021 36.3158 201.201C37.9558 199.381 37.8058 196.581 35.9858 194.941C35.5258 194.521 35.4958 193.811 35.9058 193.351C36.3258 192.891 37.0358 192.851 37.4958 193.271C40.2358 195.731 40.4558 199.971 37.9958 202.711C36.7958 204.031 35.1558 204.821 33.3758 204.911C33.2558 204.921 33.1358 204.921 33.0158 204.921C31.3658 204.921 29.7858 204.321 28.5558 203.201C27.2258 202.011 26.4458 200.371 26.3458 198.591C26.2558 196.801 26.8658 195.091 28.0558 193.761C28.2458 193.551 28.4458 193.351 28.6658 193.171C29.1358 192.761 29.8458 192.821 30.2558 193.291C30.6558 193.761 30.6058 194.471 30.1358 194.871C29.9858 195.001 29.8558 195.131 29.7258 195.271C28.9358 196.151 28.5358 197.281 28.5958 198.471C28.6558 199.651 29.1758 200.741 30.0558 201.531ZM31.8958 197.871V192.141C31.8958 191.521 32.4058 191.021 33.0258 191.021C33.6458 191.021 34.1458 191.521 34.1458 192.141V197.871C34.1458 198.491 33.6458 199.001 33.0258 199.001C32.4058 199.001 31.8958 198.491 31.8958 197.871ZM39.6558 241.651C39.6058 241.161 39.4458 240.681 39.1858 240.241L37.1358 236.751C36.8758 236.321 36.5358 235.951 36.1258 235.671L35.9458 235.371H35.6058C35.1458 235.141 34.6358 235.021 34.1158 235.021H29.8958C29.3758 235.021 28.8658 235.141 28.4058 235.371H28.1458L28.0158 235.591C27.5558 235.871 27.1658 236.271 26.8858 236.751L24.8258 240.241C24.5358 240.731 24.3758 241.261 24.3458 241.811L24.2358 242.001L24.3458 242.191C24.3658 242.751 24.5258 243.301 24.8258 243.801L26.8858 247.291C27.1758 247.781 27.5758 248.191 28.0558 248.481L28.1458 248.631H28.3258C28.8058 248.891 29.3458 249.021 29.8958 249.021H34.1158C34.6758 249.021 35.2158 248.881 35.6958 248.631H35.9458L36.0858 248.401C36.5058 248.121 36.8658 247.741 37.1358 247.291L39.1858 243.801C39.4558 243.351 39.6158 242.851 39.6558 242.341L39.8558 242.001L39.6558 241.651ZM30.3858 243.911C30.8658 244.351 31.4658 244.571 32.1258 244.531C32.7658 244.501 33.3658 244.211 33.7958 243.731C34.2258 243.261 34.4458 242.641 34.4158 241.991C34.3758 241.351 34.0958 240.761 33.6158 240.321C33.3658 240.101 33.3458 239.721 33.5758 239.481C33.7958 239.231 34.1758 239.211 34.4158 239.431C35.1358 240.081 35.5558 240.961 35.6058 241.931C35.6658 242.891 35.3358 243.821 34.6858 244.541C34.0458 245.261 33.1558 245.681 32.1858 245.731H31.9958C31.1058 245.731 30.2458 245.411 29.5858 244.811C28.8658 244.161 28.4358 243.271 28.3858 242.311C28.3358 241.341 28.6658 240.421 29.3158 239.701C29.4158 239.591 29.5258 239.481 29.6358 239.381C29.8858 239.161 30.2658 239.191 30.4858 239.441C30.7058 239.691 30.6758 240.071 30.4258 240.281C30.3458 240.351 30.2758 240.421 30.2058 240.501C29.7758 240.981 29.5558 241.601 29.5858 242.241C29.6258 242.891 29.9058 243.481 30.3858 243.911ZM31.3958 242.021V239.071C31.3958 238.741 31.6658 238.471 31.9958 238.471C32.3358 238.471 32.5958 238.741 32.5958 239.071V242.021C32.5958 242.351 32.3358 242.621 31.9958 242.621C31.6658 242.621 31.3958 242.351 31.3958 242.021Z" fill="white"/>
<path d="M76.4159 35.0109L62.5359 10.9709C60.7559 7.88095 57.4459 5.97095 53.8759 5.97095H26.1159C22.5459 5.97095 19.2359 7.88095 17.4559 10.9709L3.5759 35.0109C1.7859 38.1109 1.7859 41.9209 3.5759 45.0109L17.4559 69.0509C19.2359 72.1509 22.5459 74.0509 26.1159 74.0509H53.8759C57.4459 74.0509 60.7559 72.1509 62.5359 69.0509L76.4159 45.0109C78.2059 41.9209 78.2059 38.1109 76.4159 35.0109ZM54.8759 53.7609C51.2959 57.7309 46.3859 60.0709 41.0459 60.3509C40.6859 60.3709 40.3359 60.3809 39.9759 60.3809C35.0259 60.3809 30.3159 58.5809 26.6059 55.2409C18.4059 47.8609 17.7359 35.1809 25.1259 26.9709C25.6959 26.3409 26.3059 25.7409 26.9559 25.1909C28.2059 24.1109 30.0959 24.2509 31.1859 25.5109C32.2659 26.7609 32.1159 28.6609 30.8559 29.7409C30.4159 30.1209 29.9859 30.5409 29.5859 30.9909C24.4159 36.7309 24.8759 45.6109 30.6259 50.7809C33.4059 53.2909 36.9859 54.5609 40.7359 54.3609C44.4759 54.1609 47.9159 52.5209 50.4159 49.7409C55.5859 44.0009 55.1159 35.1209 49.3759 29.9509C48.1459 28.8409 48.0459 26.9409 49.1559 25.7109C50.2659 24.4809 52.1559 24.3809 53.3959 25.4909C61.5959 32.8709 62.2559 45.5509 54.8759 53.7609ZM42.9959 22.0209V38.9809C42.9959 40.6309 41.6559 41.9809 39.9959 41.9809C39.1759 41.9809 38.4159 41.6409 37.8759 41.1009C37.3359 40.5609 36.9959 39.8009 36.9959 38.9809V22.0209C36.9959 20.3609 38.3459 19.0209 39.9959 19.0209C41.6559 19.0209 42.9959 20.3609 42.9959 22.0209Z" fill="#1E1E1E"/>
<path d="M77.2858 34.5109L63.4058 10.4709C61.4458 7.08095 57.7958 4.97095 53.8758 4.97095H26.1158C22.1958 4.97095 18.5458 7.08095 16.5858 10.4709L2.70584 34.5109C0.74584 37.9009 0.74584 42.1209 2.70584 45.5109L16.5858 69.5509C18.5458 72.951 22.1958 75.0509 26.1158 75.0509H53.8758C57.7958 75.0509 61.4458 72.951 63.4058 69.5509L77.2858 45.5109C79.2458 42.1209 79.2458 37.9009 77.2858 34.5109ZM53.8758 73.0509H26.1158C22.9058 73.0509 19.9258 71.3309 18.3158 68.5509L4.43584 44.5109C2.83584 41.7409 2.83584 38.2909 4.43584 35.5109L18.3158 11.4709C19.9258 8.69095 22.9058 6.97095 26.1158 6.97095H53.8758C57.0858 6.97095 60.0658 8.69095 61.6758 11.4709L75.5558 35.5109C77.1558 38.2909 77.1558 41.7409 75.5558 44.5109L61.6758 68.5509C60.0658 71.3309 57.0858 73.0509 53.8758 73.0509Z" fill="#1E1E1E"/>
</g>
<defs>
<clipPath id="clip0_2055_148">
<rect width="80" height="80" fill="white"/>
</clipPath>
</defs>
</svg>
