<svg width="128" height="128" viewBox="0 0 128 128" fill="none" xmlns="http://www.w3.org/2000/svg">
<path d="M13.3335 64.0005C13.3335 40.1162 13.3335 28.1739 20.7534 20.7539C28.1734 13.334 40.1157 13.334 64.0002 13.334C87.8844 13.334 99.8268 13.334 107.247 20.7539C114.667 28.1739 114.667 40.1162 114.667 64.0005C114.667 87.8853 114.667 99.8272 107.247 107.247C99.8268 114.667 87.8844 114.667 64.0002 114.667C40.1157 114.667 28.1734 114.667 20.7534 107.247C13.3335 99.8272 13.3335 87.8853 13.3335 64.0005Z" stroke="#CAE4DA" stroke-width="8" stroke-linejoin="round"/>
<path d="M96 64.0005H86.4C82.8656 64.0005 80 66.8661 80 70.4005V73.6005C80 77.1354 82.8656 80.0005 86.4 80.0005H89.6C93.1344 80.0005 96 82.8661 96 86.4005V89.6005C96 93.1354 93.1344 96.0005 89.6 96.0005H80" stroke="#CAE4DA" stroke-width="8" stroke-linecap="round" stroke-linejoin="round"/>
<path d="M45.3335 64.0005H56.0002M56.0002 64.0005H66.6668M56.0002 64.0005V96.0005" stroke="#CAE4DA" stroke-width="8" stroke-linecap="round" stroke-linejoin="round"/>
</svg>
