<svg width="640" height="512" viewBox="0 0 640 512" fill="none" xmlns="http://www.w3.org/2000/svg">
<g clip-path="url(#clip0_2141_61)">
<path d="M349.901 236.3H283.801V176.9H349.901V236.3ZM349.901 32H283.801V92.7H349.901V32ZM428.101 176.8H362.001V236.2H428.101V176.8ZM271.801 104.7H205.701V164.8H271.801V104.7ZM349.901 104.7H283.801V164.8H349.901V104.7ZM626.701 204.7C612.301 195 579.101 191.5 553.601 196.3C550.301 172.3 536.901 151.4 512.501 132.6L498.501 123.3L489.201 137.3C470.801 165.1 465.801 210.9 485.501 241.1C476.801 245.8 459.701 252.2 437.101 251.8H2.40062C-6.29938 302.6 8.20062 368.6 46.4006 413.9C83.5006 457.8 139.101 480.1 211.801 480.1C369.201 480.1 485.701 407.6 540.201 275.9C561.601 276.3 607.801 276 631.501 230.7C633.001 228.2 638.101 217.5 640.001 213.6L626.701 204.7ZM115.601 176.8H49.6006V236.2H115.701V176.8H115.601ZM193.701 176.8H127.601V236.2H193.701V176.8ZM271.801 176.8H205.701V236.2H271.801V176.8ZM193.701 104.7H127.601V164.8H193.701V104.7Z" fill="#F6F4EF"/>
</g>
<defs>
<clipPath id="clip0_2141_61">
<rect width="640" height="512" fill="white"/>
</clipPath>
</defs>
</svg>
