<svg width="384" height="512" viewBox="0 0 384 512" fill="none" xmlns="http://www.w3.org/2000/svg">
<g clip-path="url(#clip0_2141_75)">
<path d="M277.699 312.9C287.499 306.2 301.099 300.4 301.099 300.4C301.099 300.4 262.399 307.4 223.899 310.6C176.799 314.5 126.199 315.3 100.799 311.9C40.6994 303.9 133.799 281.8 133.799 281.8C133.799 281.8 97.6994 279.4 53.1994 300.8C0.699429 326.2 183.199 337.8 277.699 312.9ZM192.299 280.8C173.299 238.1 109.199 200.6 192.299 135C295.999 53.2 242.799 0 242.799 0C264.299 84.5 167.199 110.1 132.099 162.6C108.199 198.5 143.799 237 192.299 280.8ZM306.899 104.6C306.999 104.6 131.699 148.4 215.399 244.8C240.099 273.2 208.899 298.8 208.899 298.8C208.899 298.8 271.599 266.4 242.799 225.9C215.899 188.1 195.299 169.3 306.899 104.6ZM300.799 375.1C300.253 376.053 299.58 376.927 298.799 377.7C427.099 344 379.899 258.8 318.599 280.4C315.288 281.615 312.427 283.813 310.399 286.7C313.979 285.405 317.658 284.401 321.399 283.7C352.399 277.2 396.899 325.2 300.799 375.1ZM347.999 437.4C347.999 437.4 362.499 449.3 332.099 458.6C274.199 476.1 91.2994 481.4 40.4994 459.3C22.1994 451.4 56.4994 440.3 67.2994 438C78.4994 435.6 84.9994 436 84.9994 436C64.6994 421.7 -46.3006 464.1 28.5994 476.2C232.799 509.4 400.999 461.3 347.999 437.4ZM124.399 396C45.6994 418 172.299 463.4 272.499 420.5C262.727 416.703 253.293 412.087 244.299 406.7C199.599 415.2 178.899 415.8 138.299 411.2C104.799 407.4 124.399 396 124.399 396ZM304.199 493.2C225.499 508 128.399 506.3 70.8994 496.8C70.8994 496.7 82.6994 506.5 143.299 510.4C235.499 516.3 377.099 507.1 380.399 463.5C380.399 463.5 373.999 480 304.199 493.2ZM260.599 353C201.399 364.4 167.099 364.1 123.799 359.6C90.2994 356.1 112.199 339.9 112.199 339.9C25.3994 368.7 160.399 401.3 281.699 365.8C273.86 363.031 266.677 358.673 260.599 353Z" fill="#F6F4EF"/>
</g>
<defs>
<clipPath id="clip0_2141_75">
<rect width="384" height="512" fill="white"/>
</clipPath>
</defs>
</svg>
