<svg width="128" height="128" viewBox="0 0 128 128" fill="none" xmlns="http://www.w3.org/2000/svg">
<path d="M13.334 63.9999C13.334 40.1154 13.334 28.1732 20.7539 20.7532C28.1739 13.3333 40.1162 13.3333 64.0007 13.3333C87.8849 13.3333 99.8273 13.3333 107.248 20.7532C114.667 28.1732 114.667 40.1154 114.667 63.9999C114.667 87.8842 114.667 99.8266 107.248 107.247C99.8273 114.667 87.8849 114.667 64.0007 114.667C40.1162 114.667 28.1739 114.667 20.7539 107.247C13.334 99.8266 13.334 87.8842 13.334 63.9999Z" stroke="#F6F4EF" stroke-width="8"/>
<path d="M62.5721 64V85.3333C62.5721 91.2245 57.7967 96 51.9057 96C47.9575 96 44.5103 93.8549 42.666 90.6667" stroke="#F6F4EF" stroke-width="8" stroke-linecap="round"/>
<path d="M98.4901 69.3333C96.6459 66.1451 93.1989 64 89.2507 64H86.584C82.1653 64 78.584 67.5819 78.584 72C78.584 76.4181 82.1653 80 86.584 80H91.9173C96.3355 80 99.9173 83.5819 99.9173 88C99.9173 92.4181 96.3355 96 91.9173 96H89.2507C85.3024 96 81.8549 93.8549 80.0107 90.6667" stroke="#F6F4EF" stroke-width="8" stroke-linecap="round"/>
</svg>
