<svg width="100" height="100" viewBox="0 0 100 100" fill="none" xmlns="http://www.w3.org/2000/svg">
<path d="M70.3975 4.20312C67.3975 4.20312 64.796 4.79688 62.3975 5.39844C66.6006 7.19532 69.2022 9.39845 70.6006 10.3984C73.8038 13.1953 75.6006 16 78.8037 20.6016C79.3975 21.6016 80.3975 23 80.9991 25.1953C81.6006 27.1953 81.6006 28.7969 81.6006 30.3984C81.6006 32.6016 81.3975 34.3984 81.1944 36.1953C80.9991 37.6016 80.9991 38.2031 80.8038 38.6016C80.8038 38.8047 80.8038 39 80.6006 39.3985C80.6006 40.3985 80.6007 40.8047 80.8038 41.6016C80.8038 42.3985 80.9991 43.2031 80.9991 44.6016C81.2022 47.2031 81.2022 49 80.8038 51.1953V52C80.3975 53.7969 79.9991 55.6016 78.9991 57.1953C79.2022 57.6016 79.3975 57.7969 79.6006 58.1953C80.6006 56.7969 81.3975 55.3985 82.1944 53.8047C84.6007 49.3985 85.9991 45.6016 86.9991 42.8047C88.796 37.6016 89.796 33.7969 90.3975 31C91.796 25 91.9991 22.2032 91.3975 19C91.3975 18 90.9991 16.1954 89.9991 14.3985C87.796 10.3985 84.3975 8.6016 81.9991 7.39848C80.3975 6.6016 76.1944 4.39844 70.3975 4.20312ZM27.0694 5.08594C24.7647 5.03906 21.9522 5.29688 18.7959 6.79688C17.7959 7.20314 14.7959 8.60156 12.3975 11.7969C10.7959 13.7969 9.60063 16.7969 8.99907 20.1953C8.39751 23.1953 8.19439 26.8047 9.39751 33.6016C10.1944 38.3985 10.9991 41.6016 12.6006 48.1953C12.8037 49 13.9991 52.6016 16.6006 60.6016L16.7959 61C17.2022 62.3985 18.3975 65.3985 20.9991 68.3985C22.7959 70.3985 24.3975 71.6016 25.8037 71.6016H26.1944C28.7959 71.6016 30.6006 69.6016 32.1944 68C32.1944 67.7969 35.999 63.2032 37.3975 61.6016C37.1944 61.3985 36.8037 61.3985 36.6006 61.1954C34.2022 59.7969 32.3975 57.6016 30.9991 55.1954C28.6006 50.7969 28.7959 46.3985 29.1944 44.1954L29.3975 40.8047C28.6006 35.3985 28.8037 30.2032 29.8037 25.0001C30.6006 20.6016 31.6006 16.2032 35.1944 11.6016C36.3975 10.0001 37.7959 8.60162 39.1944 7.60162C35.9991 6.20318 32.6006 5.3985 29.1944 5.20318C28.5459 5.1485 27.835 5.10156 27.0694 5.08594ZM52.1944 6.79688C51.1944 6.79688 50.1944 6.79688 49.1944 7C45.1944 7.79688 41.3975 10 38.3975 13.7969C35.3975 17.6016 34.6006 21.1953 33.8038 25.3984C33.3975 27 33.3975 28.3984 33.1944 30C34.3975 29 35.9991 27.7969 38.3975 27.1953C39.796 26.7969 43.3975 25.6016 46.3975 27.3984C47.3975 28 48.7959 29.2031 50.1944 32.6016C53.1944 41 50.2022 49.6016 49.8038 50.3984C49.6006 51.1953 49.2022 51.7969 48.9991 52.1953C48.6006 53.1953 48.2022 54 47.8038 55.6016C47.6006 57 47.3975 58.2031 47.3975 59.6016C47.9991 59.6016 48.6006 59.7969 49.1944 60.1953C50.1944 61.1953 50.3975 62.6016 50.6007 63.1953C50.9991 66.3985 50.9991 70.3985 50.9991 74.3985C50.9991 77.6016 50.9991 80.6016 51.1944 82.6016C51.6007 87.2031 52.9991 90.3985 54.9991 92C56.3975 93.2032 58.1944 93.1953 59.1944 93.3985H59.6007C62.6007 93.3985 67.3976 91.3985 69.1945 88.6016C70.1945 87 70.6007 85.6016 70.9991 83.6016C71.2023 82.3985 71.1944 81.8047 71.3976 80.6016C71.3976 80 71.6007 79 71.6007 77.8047C71.6007 76.8047 71.796 75.6016 71.9991 74.1953C72.2023 70.7969 72.796 66.8047 72.9991 64.6016C73.2023 62 74.3976 59.7969 75.3976 58.3985C73.9991 58.1953 72.6007 57 71.8038 55C70.6007 52.7969 70.3976 52.1953 70.1945 51.1953C69.9991 50.3985 69.6007 49.3985 68.1945 46.3985C65.1945 39.6016 64.8038 37.6016 64.8038 36C64.6007 33.7969 64.3976 30.8047 66.8038 28.8047C70.3976 25.6016 74.9992 25.8047 77.3976 26.6016V26.1953C76.9992 24.6016 76.2023 23.3985 75.6007 22.6016C72.6007 18 70.9991 15.6016 68.1945 13.2032C66.9991 12.2032 63.9992 9.79693 59.6007 8.20317C57.6007 7.60161 55.1944 6.79688 52.1944 6.79688ZM74.3037 30.25C72.8506 30.1484 70.9991 30.3984 69.3975 31.8047C68.6006 32.6016 68.6006 34.2031 68.8038 35.6016C68.8038 36.6016 68.9991 38 71.9991 44.8047C73.3975 48 73.796 49 73.9991 49.8047C74.2022 50.6016 74.3975 51 75.6006 53.1953C75.8038 53.6016 75.9991 54 76.3975 54.3984C76.796 53.7969 76.9991 52.7969 77.1944 51.1953L77.3975 50.6016C77.796 48.8047 77.6006 47.3984 77.6006 45C77.6006 43.7969 77.3975 43 77.3975 42.3984C77.1944 41.3984 77.1944 40.6016 77.1944 39.3984C76.796 38.7969 76.796 38.6016 76.9991 38.1953C76.9991 37.7969 77.1944 37.2031 77.3975 36C77.6006 34.3984 77.8038 33 77.8038 31.3984C77.3975 31.1953 77.2022 31 76.8038 30.8047C76.8038 30.8047 75.7491 30.3516 74.3037 30.25ZM43.0303 31.0391C41.7569 30.8906 40.296 31.3047 39.3975 31.6016C37.1944 32.2031 35.8038 33.6016 34.8038 34.3984C34.2022 35 33.6006 35.6016 32.9991 36.3984C32.9991 37.7969 33.1944 39.2031 33.3975 40.6016V40.8047L32.9991 44.8047C32.6006 46.6016 32.3975 50 34.3975 53.3984C35.3975 55.3984 36.8038 57 38.6007 58C39.8038 58.7969 41.3975 59.3984 43.1944 59.8047C43.1944 58.3984 43.3975 56.7969 43.6007 55.3984C43.9991 53.3984 44.3975 52.3984 44.9991 51.1953C45.2022 50.6016 45.3976 50.2031 45.8038 49.6016C45.9991 49 48.796 41.3985 46.1944 34.3985C45.6007 32.7969 44.9991 31.7969 44.1944 31.3985C43.8507 31.1953 43.4444 31.0859 43.0303 31.0391ZM72.3741 32.1797C72.8975 32.1484 73.3975 32.1953 73.6006 32.3984C74.2022 32.7969 73.3975 33.7969 73.1944 34C72.9991 34.2031 72.6006 34.6016 71.9991 34.8047C71.2022 35 70.6006 34.3984 70.3975 34.3984C70.1944 34.1953 69.6006 33.6016 69.8038 33C69.9991 32.6016 70.2022 32.6016 70.9991 32.3984C71.296 32.2969 71.8506 32.2031 72.3741 32.1797ZM42.3116 33.8359C42.9834 33.7891 43.5459 34.0469 43.9991 34.1953C44.6006 34.3984 45.1944 34.6016 45.1944 35C45.3975 35.6016 44.8038 36 44.6007 36.1953C43.9991 36.7969 42.9991 36.8047 42.9991 36.8047C41.9991 36.8047 41.3975 36.2031 40.9991 35.6016C40.796 35.3985 40.6006 35 40.8038 34.6016C40.9991 34.2031 41.3975 34 41.6007 34C41.8507 33.8985 42.085 33.8516 42.3116 33.8359ZM78.9991 60C77.9991 61.3984 76.6006 63.2031 76.3975 65.6016C76.3975 66 76.3975 66.2031 76.1944 66.6016C77.7959 67 79.2022 67 80.6006 66.8047C83.8038 66.3984 85.9991 64.7969 86.3975 64.3984C87.796 63.3984 89.6007 61.3984 89.1944 60.6016C88.9991 60.2031 88.3975 60.3984 85.1944 60.6016C84.3975 60.6016 81.9991 61.2031 80.3975 60.8047H79.9991C79.6007 60.6016 79.2022 60.3984 78.9991 60ZM44.1944 64C43.7959 64.6016 43.2022 65 42.8038 65.3984C41.2022 66.3984 39.1944 67.2031 37.1944 67.6016C35.3975 68.2031 34.3975 68.2031 34.3975 68.8047C34.1944 69.6016 36.1944 70.6016 37.1944 71C40.6006 72.3984 43.9991 71.6016 44.6007 71.3984C44.9991 71.1953 45.9991 70.7969 46.9991 70.1953C46.9991 68 46.8038 66 46.6007 64.3984V64.1953H46.3975C45.796 64.1953 44.9991 64.2031 44.1944 64Z" fill="#F6F4EF"/>
</svg>
