<svg width="80" height="80" viewBox="0 0 80 80" fill="none" xmlns="http://www.w3.org/2000/svg">
<g clip-path="url(#clip0_2141_79)">
<path d="M77.2863 34.5112L63.4063 10.4712C61.4463 7.08119 57.7963 4.97119 53.8763 4.97119H26.1163C22.1963 4.97119 18.5463 7.08119 16.5863 10.4712L2.70633 34.5112C0.746328 37.9012 0.746328 42.1212 2.70633 45.5112L16.5863 69.5512C18.5463 72.9512 22.1963 75.0512 26.1163 75.0512H53.8763C57.7963 75.0512 61.4463 72.9512 63.4063 69.5512L77.2863 45.5112C79.2463 42.1212 79.2463 37.9012 77.2863 34.5112ZM54.8763 53.7612C51.2963 57.7312 46.3863 60.0712 41.0463 60.3512C40.6863 60.3712 40.3363 60.3812 39.9763 60.3812C35.0263 60.3812 30.3163 58.5812 26.6063 55.2412C18.4063 47.8612 17.7363 35.1812 25.1263 26.9712C25.6963 26.3412 26.3063 25.7412 26.9563 25.1912C28.2063 24.1112 30.0963 24.2512 31.1863 25.5112C32.2663 26.7612 32.1163 28.6612 30.8563 29.7412C30.4163 30.1212 29.9863 30.5412 29.5863 30.9912C24.4163 36.7312 24.8763 45.6112 30.6263 50.7812C33.4063 53.2912 36.9863 54.5612 40.7363 54.3612C44.4763 54.1612 47.9163 52.5212 50.4163 49.7412C55.5863 44.0012 55.1163 35.1212 49.3763 29.9512C48.1463 28.8412 48.0463 26.9412 49.1563 25.7112C50.2663 24.4812 52.1563 24.3812 53.3963 25.4912C61.5963 32.8712 62.2563 45.5512 54.8763 53.7612ZM36.9963 38.9812V22.0212C36.9963 20.3612 38.3463 19.0212 39.9963 19.0212C41.6563 19.0212 42.9963 20.3612 42.9963 22.0212V38.9812C42.9963 40.6312 41.6563 41.9812 39.9963 41.9812C39.1763 41.9812 38.4163 41.6412 37.8763 41.1012C37.3363 40.5612 36.9963 39.8012 36.9963 38.9812ZM52.1163 128.721L45.9163 118.221C45.3563 117.271 44.5663 116.491 43.6463 115.951L43.4863 115.671H43.1463C42.2763 115.251 41.3063 115.021 40.3163 115.021H27.6863C26.6863 115.021 25.7263 115.251 24.8563 115.671H24.4163L24.1963 116.041C23.3463 116.581 22.6163 117.321 22.0863 118.221L15.8863 128.721C15.3163 129.691 15.0163 130.761 14.9863 131.841L14.8863 132.021L14.9863 132.201C15.0163 133.281 15.3163 134.351 15.8863 135.321L22.0863 145.821C22.6163 146.721 23.3463 147.461 24.2063 148.001L24.4163 148.361H24.8363C25.7163 148.791 26.6763 149.021 27.6863 149.021H40.3163C41.3163 149.021 42.2863 148.791 43.1663 148.361H43.4863L43.6363 148.101C44.5663 147.551 45.3563 146.781 45.9163 145.821L52.1163 135.321C52.7163 134.301 53.0163 133.161 53.0163 132.021C53.0163 130.881 52.7163 129.741 52.1163 128.721ZM29.6763 137.091C32.3363 139.491 36.4563 139.271 38.8463 136.611C41.2463 133.951 41.0263 129.831 38.3663 127.441C37.7463 126.881 37.6963 125.931 38.2563 125.321C38.8063 124.701 39.7563 124.651 40.3763 125.211C44.2663 128.711 44.5763 134.731 41.0763 138.621C39.2063 140.701 36.6163 141.761 34.0163 141.761C31.7463 141.761 29.4763 140.951 27.6663 139.321C23.7763 135.821 23.4563 129.801 26.9663 125.911C27.2363 125.611 27.5263 125.321 27.8263 125.061C28.4563 124.521 29.4063 124.601 29.9463 125.221C30.4863 125.851 30.4163 126.801 29.7863 127.341C29.5763 127.521 29.3763 127.711 29.1863 127.921C26.7963 130.581 27.0163 134.701 29.6763 137.091ZM32.5163 130.521V123.521C32.5163 122.691 33.1963 122.021 34.0163 122.021C34.8463 122.021 35.5163 122.691 35.5163 123.521V130.521C35.5163 131.351 34.8463 132.021 34.0163 132.021C33.1963 132.021 32.5163 131.351 32.5163 130.521ZM47.1463 197.481C47.0763 196.711 46.8463 195.961 46.4463 195.271L42.1163 187.771C41.7163 187.071 41.1763 186.491 40.5363 186.041L40.2363 185.521H39.6363C38.9263 185.191 38.1563 185.021 37.3563 185.021H28.6963C27.8963 185.021 27.1263 185.191 26.4163 185.521H25.8163L25.5163 186.041C24.8763 186.491 24.3363 187.071 23.9363 187.771L19.6063 195.271C19.2063 195.961 18.9763 196.711 18.9063 197.481L18.6063 198.001L18.8963 198.511C18.9663 199.291 19.1963 200.071 19.6063 200.771L23.9363 208.271C24.3463 208.981 24.9063 209.581 25.5563 210.031L25.8163 210.481H26.3263C27.0563 210.831 27.8663 211.021 28.6963 211.021H37.3563C38.1863 211.021 38.9963 210.831 39.7263 210.481H40.2363L40.4963 210.031C41.1463 209.581 41.7063 208.981 42.1163 208.271L46.4463 200.771C46.8563 200.071 47.0863 199.291 47.1563 198.511L47.4463 198.001L47.1463 197.481ZM30.0563 201.531C31.8763 203.161 34.6863 203.021 36.3163 201.201C37.9563 199.381 37.8063 196.581 35.9863 194.941C35.5263 194.521 35.4963 193.811 35.9063 193.351C36.3263 192.891 37.0363 192.851 37.4963 193.271C40.2363 195.731 40.4563 199.971 37.9963 202.711C36.7963 204.031 35.1563 204.821 33.3763 204.911C33.2563 204.921 33.1363 204.921 33.0163 204.921C31.3663 204.921 29.7863 204.321 28.5563 203.201C27.2263 202.011 26.4463 200.371 26.3463 198.591C26.2563 196.801 26.8663 195.091 28.0563 193.761C28.2463 193.551 28.4463 193.351 28.6663 193.171C29.1363 192.761 29.8463 192.821 30.2563 193.291C30.6563 193.761 30.6063 194.471 30.1363 194.871C29.9863 195.001 29.8563 195.131 29.7263 195.271C28.9363 196.151 28.5363 197.281 28.5963 198.471C28.6563 199.651 29.1763 200.741 30.0563 201.531ZM31.8963 197.871V192.141C31.8963 191.521 32.4063 191.021 33.0263 191.021C33.6463 191.021 34.1463 191.521 34.1463 192.141V197.871C34.1463 198.491 33.6463 199.001 33.0263 199.001C32.4063 199.001 31.8963 198.491 31.8963 197.871ZM39.6563 241.651C39.6063 241.161 39.4463 240.681 39.1863 240.241L37.1363 236.751C36.8763 236.321 36.5363 235.951 36.1263 235.671L35.9463 235.371H35.6063C35.1463 235.141 34.6363 235.021 34.1163 235.021H29.8963C29.3763 235.021 28.8663 235.141 28.4063 235.371H28.1463L28.0163 235.591C27.5563 235.871 27.1663 236.271 26.8863 236.751L24.8263 240.241C24.5363 240.731 24.3763 241.261 24.3463 241.811L24.2363 242.001L24.3463 242.191C24.3663 242.751 24.5263 243.301 24.8263 243.801L26.8863 247.291C27.1763 247.781 27.5763 248.191 28.0563 248.481L28.1463 248.631H28.3263C28.8063 248.891 29.3463 249.021 29.8963 249.021H34.1163C34.6763 249.021 35.2163 248.881 35.6963 248.631H35.9463L36.0863 248.401C36.5063 248.121 36.8663 247.741 37.1363 247.291L39.1863 243.801C39.4563 243.351 39.6163 242.851 39.6563 242.341L39.8563 242.001L39.6563 241.651ZM30.3863 243.911C30.8663 244.351 31.4663 244.571 32.1263 244.531C32.7663 244.501 33.3663 244.211 33.7963 243.731C34.2263 243.261 34.4463 242.641 34.4163 241.991C34.3763 241.351 34.0963 240.761 33.6163 240.321C33.3663 240.101 33.3463 239.721 33.5763 239.481C33.7963 239.231 34.1763 239.211 34.4163 239.431C35.1363 240.081 35.5563 240.961 35.6063 241.931C35.6663 242.891 35.3363 243.821 34.6863 244.541C34.0463 245.261 33.1563 245.681 32.1863 245.731H31.9963C31.1063 245.731 30.2463 245.411 29.5863 244.811C28.8663 244.161 28.4363 243.271 28.3863 242.311C28.3363 241.341 28.6663 240.421 29.3163 239.701C29.4163 239.591 29.5263 239.481 29.6363 239.381C29.8863 239.161 30.2663 239.191 30.4863 239.441C30.7063 239.691 30.6763 240.071 30.4263 240.281C30.3463 240.351 30.2763 240.421 30.2063 240.501C29.7763 240.981 29.5563 241.601 29.5863 242.241C29.6263 242.891 29.9063 243.481 30.3863 243.911ZM31.3963 242.021V239.071C31.3963 238.741 31.6663 238.471 31.9963 238.471C32.3363 238.471 32.5963 238.741 32.5963 239.071V242.021C32.5963 242.351 32.3363 242.621 31.9963 242.621C31.6663 242.621 31.3963 242.351 31.3963 242.021Z" fill="#F6F4EF"/>
<path d="M76.4169 35.0112L62.5369 10.9712C60.7569 7.88119 57.4469 5.97119 53.8769 5.97119H26.1169C22.5469 5.97119 19.2369 7.88119 17.4569 10.9712L3.57687 35.0112C1.78688 38.1112 1.78688 41.9212 3.57687 45.0112L17.4569 69.0512C19.2369 72.1512 22.5469 74.0512 26.1169 74.0512H53.8769C57.4469 74.0512 60.7569 72.1512 62.5369 69.0512L76.4169 45.0112C78.2069 41.9212 78.2069 38.1112 76.4169 35.0112ZM54.8769 53.7612C51.2969 57.7312 46.3869 60.0712 41.0469 60.3512C40.6869 60.3712 40.3369 60.3812 39.9769 60.3812C35.0269 60.3812 30.3169 58.5812 26.6069 55.2412C18.4069 47.8612 17.7369 35.1812 25.1269 26.9712C25.6969 26.3412 26.3069 25.7412 26.9569 25.1912C28.2069 24.1112 30.0969 24.2512 31.1869 25.5112C32.2669 26.7612 32.1169 28.6612 30.8569 29.7412C30.4169 30.1212 29.9869 30.5412 29.5869 30.9912C24.4169 36.7312 24.8769 45.6112 30.6269 50.7812C33.4069 53.2912 36.9869 54.5612 40.7369 54.3612C44.4769 54.1612 47.9169 52.5212 50.4169 49.7412C55.5869 44.0012 55.1169 35.1212 49.3769 29.9512C48.1469 28.8412 48.0469 26.9412 49.1569 25.7112C50.2669 24.4812 52.1569 24.3812 53.3969 25.4912C61.5969 32.8712 62.2569 45.5512 54.8769 53.7612ZM42.9969 22.0212V38.9812C42.9969 40.6312 41.6569 41.9812 39.9969 41.9812C39.1769 41.9812 38.4169 41.6412 37.8769 41.1012C37.3369 40.5612 36.9969 39.8012 36.9969 38.9812V22.0212C36.9969 20.3612 38.3469 19.0212 39.9969 19.0212C41.6569 19.0212 42.9969 20.3612 42.9969 22.0212Z" fill="#F6F4EF"/>
<path d="M77.2863 34.5112L63.4063 10.4712C61.4463 7.08119 57.7963 4.97119 53.8763 4.97119H26.1163C22.1963 4.97119 18.5463 7.08119 16.5863 10.4712L2.70633 34.5112C0.746328 37.9012 0.746328 42.1212 2.70633 45.5112L16.5863 69.5512C18.5463 72.9512 22.1963 75.0512 26.1163 75.0512H53.8763C57.7963 75.0512 61.4463 72.9512 63.4063 69.5512L77.2863 45.5112C79.2463 42.1212 79.2463 37.9012 77.2863 34.5112ZM53.8763 73.0512H26.1163C22.9063 73.0512 19.9263 71.3312 18.3163 68.5512L4.43633 44.5112C2.83633 41.7412 2.83633 38.2912 4.43633 35.5112L18.3163 11.4712C19.9263 8.69119 22.9063 6.97119 26.1163 6.97119H53.8763C57.0863 6.97119 60.0663 8.69119 61.6763 11.4712L75.5563 35.5112C77.1563 38.2912 77.1563 41.7412 75.5563 44.5112L61.6763 68.5512C60.0663 71.3312 57.0863 73.0512 53.8763 73.0512Z" fill="#F6F4EF"/>
</g>
<defs>
<clipPath id="clip0_2141_79">
<rect width="80" height="80" fill="white"/>
</clipPath>
</defs>
</svg>
