<svg width="13" height="12" viewBox="0 0 13 12" fill="none" xmlns="http://www.w3.org/2000/svg">
<path d="M5.54894 1.92705C5.8483 1.00574 7.1517 1.00574 7.45106 1.92705L7.95934 3.49139C8.09321 3.90341 8.47717 4.18237 8.9104 4.18237H10.5552C11.524 4.18237 11.9267 5.42199 11.143 5.99139L9.81232 6.9582C9.46183 7.21285 9.31518 7.66422 9.44905 8.07624L9.95733 9.64058C10.2567 10.5619 9.20221 11.328 8.41849 10.7586L7.08779 9.7918C6.7373 9.53715 6.2627 9.53715 5.91221 9.7918L4.58151 10.7586C3.7978 11.328 2.74331 10.5619 3.04267 9.64058L3.55095 8.07624C3.68483 7.66422 3.53817 7.21285 3.18768 6.9582L1.85698 5.99139C1.07326 5.42199 1.47604 4.18237 2.44476 4.18237H4.0896C4.52283 4.18237 4.90678 3.90341 5.04066 3.49139L5.54894 1.92705Z" fill="#1E1E1E" stroke="#CAE4DA"/>
</svg>
