<svg width="384" height="512" viewBox="0 0 384 512" fill="none" xmlns="http://www.w3.org/2000/svg">
<g clip-path="url(#clip0_2053_101)">
<path d="M277.7 312.9C287.5 306.2 301.1 300.4 301.1 300.4C301.1 300.4 262.4 307.4 223.9 310.6C176.8 314.5 126.2 315.3 100.8 311.9C40.6999 303.9 133.8 281.8 133.8 281.8C133.8 281.8 97.6999 279.4 53.1999 300.8C0.699917 326.2 183.2 337.8 277.7 312.9ZM192.3 280.8C173.3 238.1 109.2 200.6 192.3 135C296 53.2 242.8 0 242.8 0C264.3 84.5 167.2 110.1 132.1 162.6C108.2 198.5 143.8 237 192.3 280.8ZM306.9 104.6C307 104.6 131.7 148.4 215.4 244.8C240.1 273.2 208.9 298.8 208.9 298.8C208.9 298.8 271.6 266.4 242.8 225.9C215.9 188.1 195.3 169.3 306.9 104.6ZM300.8 375.1C300.253 376.053 299.581 376.927 298.8 377.7C427.1 344 379.9 258.8 318.6 280.4C315.288 281.615 312.427 283.813 310.4 286.7C313.98 285.405 317.658 284.401 321.4 283.7C352.4 277.2 396.9 325.2 300.8 375.1ZM348 437.4C348 437.4 362.5 449.3 332.1 458.6C274.2 476.1 91.2999 481.4 40.4999 459.3C22.1999 451.4 56.4999 440.3 67.2999 438C78.4999 435.6 84.9999 436 84.9999 436C64.6999 421.7 -46.3001 464.1 28.5999 476.2C232.8 509.4 401 461.3 348 437.4ZM124.4 396C45.6999 418 172.3 463.4 272.5 420.5C262.728 416.703 253.294 412.087 244.3 406.7C199.6 415.2 178.9 415.8 138.3 411.2C104.8 407.4 124.4 396 124.4 396ZM304.2 493.2C225.5 508 128.4 506.3 70.8999 496.8C70.8999 496.7 82.6999 506.5 143.3 510.4C235.5 516.3 377.1 507.1 380.4 463.5C380.4 463.5 374 480 304.2 493.2ZM260.6 353C201.4 364.4 167.1 364.1 123.8 359.6C90.2999 356.1 112.2 339.9 112.2 339.9C25.3999 368.7 160.4 401.3 281.7 365.8C273.861 363.031 266.677 358.673 260.6 353Z" fill="#1E1E1E"/>
</g>
<defs>
<clipPath id="clip0_2053_101">
<rect width="384" height="512" fill="white"/>
</clipPath>
</defs>
</svg>
