<svg width="100" height="100" viewBox="0 0 100 100" fill="none" xmlns="http://www.w3.org/2000/svg">
<path d="M70.3985 4.20312C67.3985 4.20312 64.7969 4.79688 62.3985 5.39844C66.6016 7.19532 69.2032 9.39845 70.6016 10.3984C73.8047 13.1953 75.6016 16 78.8047 20.6016C79.3985 21.6016 80.3985 23 81 25.1953C81.6016 27.1953 81.6016 28.7969 81.6016 30.3984C81.6016 32.6016 81.3985 34.3984 81.1954 36.1953C81 37.6016 81 38.2031 80.8047 38.6016C80.8047 38.8047 80.8047 39 80.6016 39.3985C80.6016 40.3985 80.6016 40.8047 80.8047 41.6016C80.8047 42.3985 81.0001 43.2031 81.0001 44.6016C81.2032 47.2031 81.2032 49 80.8047 51.1953V52C80.3985 53.7969 80.0001 55.6016 79.0001 57.1953C79.2032 57.6016 79.3985 57.7969 79.6016 58.1953C80.6016 56.7969 81.3985 55.3985 82.1954 53.8047C84.6016 49.3985 86.0001 45.6016 87.0001 42.8047C88.797 37.6016 89.7969 33.7969 90.3985 31C91.7969 25 92.0001 22.2032 91.3985 19C91.3985 18 91.0001 16.1954 90.0001 14.3985C87.797 10.3985 84.3985 8.6016 82.0001 7.39848C80.3985 6.6016 76.1954 4.39844 70.3985 4.20312ZM27.0704 5.08594C24.7657 5.03906 21.9532 5.29688 18.7969 6.79688C17.7969 7.20314 14.7969 8.60156 12.3985 11.7969C10.7969 13.7969 9.6016 16.7969 9.00004 20.1953C8.39848 23.1953 8.19537 26.8047 9.39849 33.6016C10.1954 38.3985 11 41.6016 12.6016 48.1953C12.8047 49 14 52.6016 16.6016 60.6016L16.7969 61C17.2032 62.3985 18.3985 65.3985 21 68.3985C22.7969 70.3985 24.3985 71.6016 25.8047 71.6016H26.1953C28.7969 71.6016 30.6016 69.6016 32.1953 68C32.1953 67.7969 36 63.2032 37.3985 61.6016C37.1953 61.3985 36.8047 61.3985 36.6016 61.1954C34.2031 59.7969 32.3985 57.6016 31 55.1954C28.6016 50.7969 28.7969 46.3985 29.1953 44.1954L29.3985 40.8047C28.6016 35.3985 28.8047 30.2032 29.8047 25.0001C30.6016 20.6016 31.6016 16.2032 35.1953 11.6016C36.3985 10.0001 37.7969 8.60162 39.1953 7.60162C36 6.20319 32.6016 5.3985 29.1953 5.20318C28.5469 5.1485 27.836 5.10156 27.0704 5.08594ZM52.1954 6.79688C51.1954 6.79688 50.1954 6.79688 49.1954 7C45.1954 7.79688 41.3985 10 38.3985 13.7969C35.3985 17.6016 34.6016 21.1953 33.8047 25.3984C33.3985 27 33.3985 28.3984 33.1954 30C34.3985 29 36 27.7969 38.3985 27.1953C39.7969 26.7969 43.3985 25.6016 46.3985 27.3984C47.3985 28 48.7969 29.2031 50.1954 32.6016C53.1954 41 50.2032 49.6016 49.8047 50.3984C49.6016 51.1953 49.2032 51.7969 49.0001 52.1953C48.6016 53.1953 48.2032 54 47.8047 55.6016C47.6016 57 47.3985 58.2031 47.3985 59.6016C48.0001 59.6016 48.6016 59.7969 49.1954 60.1953C50.1954 61.1953 50.3985 62.6016 50.6016 63.1953C51.0001 66.3985 51.0001 70.3985 51.0001 74.3985C51.0001 77.6016 51.0001 80.6016 51.1954 82.6016C51.6017 87.2031 53.0001 90.3985 55.0001 92C56.3985 93.2031 58.1954 93.1954 59.1954 93.3985H59.6017C62.6017 93.3985 67.3985 91.3985 69.1954 88.6016C70.1954 87 70.6017 85.6016 71.0001 83.6016C71.2032 82.3985 71.1954 81.8047 71.3985 80.6016C71.3985 80 71.6017 79 71.6017 77.8047C71.6017 76.8047 71.797 75.6016 72.0001 74.1953C72.2032 70.7969 72.797 66.8047 73.0001 64.6016C73.2032 62 74.3985 59.7969 75.3985 58.3985C74.0001 58.1953 72.6017 57 71.8048 55C70.6017 52.7969 70.3986 52.1953 70.1954 51.1953C70.0001 50.3985 69.6017 49.3985 68.1954 46.3985C65.1954 39.6016 64.8048 37.6016 64.8048 36C64.6017 33.7969 64.3986 30.8047 66.8048 28.8047C70.3986 25.6016 75.0001 25.8047 77.3986 26.6016V26.1953C77.0001 24.6016 76.2032 23.3985 75.6017 22.6016C72.6017 18 71.0001 15.6016 68.1954 13.2032C67.0001 12.2032 64.0001 9.79693 59.6017 8.20317C57.6017 7.6016 55.1954 6.79688 52.1954 6.79688ZM74.3047 30.25C72.8516 30.1484 71 30.3984 69.3985 31.8047C68.6016 32.6016 68.6016 34.2031 68.8047 35.6016C68.8047 36.6016 69.0001 38 72.0001 44.8047C73.3985 48 73.797 49 74.0001 49.8047C74.2032 50.6016 74.3985 51 75.6016 53.1953C75.8047 53.6016 76.0001 54 76.3985 54.3984C76.7969 53.7969 77.0001 52.7969 77.1954 51.1953L77.3985 50.6016C77.7969 48.8047 77.6016 47.3984 77.6016 45C77.6016 43.7969 77.3985 43 77.3985 42.3984C77.1954 41.3984 77.1954 40.6016 77.1954 39.3984C76.797 38.7969 76.797 38.6016 77.0001 38.1953C77.0001 37.7969 77.1954 37.2031 77.3985 36C77.6016 34.3984 77.8048 33 77.8048 31.3984C77.3985 31.1953 77.2032 31 76.8048 30.8047C76.8048 30.8047 75.75 30.3516 74.3047 30.25ZM43.0313 31.0391C41.7579 30.8906 40.2969 31.3047 39.3985 31.6016C37.1954 32.2031 35.8047 33.6016 34.8047 34.3984C34.2032 35 33.6016 35.6016 33.0001 36.3984C33.0001 37.7969 33.1954 39.2031 33.3985 40.6016V40.8047L33.0001 44.8047C32.6016 46.6016 32.3985 50 34.3985 53.3984C35.3985 55.3984 36.8048 57 38.6016 58C39.8047 58.7969 41.3985 59.3984 43.1954 59.8047C43.1954 58.3984 43.3985 56.7969 43.6016 55.3984C44.0001 53.3984 44.3985 52.3984 45.0001 51.1953C45.2032 50.6016 45.3985 50.2031 45.8048 49.6016C46.0001 49 48.7969 41.3985 46.1954 34.3985C45.6016 32.7969 45.0001 31.7969 44.1954 31.3985C43.8516 31.1953 43.4454 31.0859 43.0313 31.0391ZM72.375 32.1797C72.8985 32.1484 73.3985 32.1953 73.6016 32.3984C74.2032 32.7969 73.3985 33.7969 73.1954 34C73 34.2031 72.6016 34.6016 72 34.8047C71.2032 35 70.6016 34.3984 70.3985 34.3984C70.1954 34.1953 69.6016 33.6016 69.8047 33C70.0001 32.6016 70.2032 32.6016 71.0001 32.3984C71.2969 32.2969 71.8516 32.2031 72.375 32.1797ZM42.3125 33.8359C42.9844 33.7891 43.5469 34.0469 44 34.1953C44.6016 34.3984 45.1954 34.6016 45.1954 35C45.3985 35.6016 44.8047 36 44.6016 36.1953C44.0001 36.7969 43.0001 36.8047 43.0001 36.8047C42.0001 36.8047 41.3985 36.2031 41.0001 35.6016C40.7969 35.3985 40.6016 35 40.8047 34.6016C41.0001 34.2031 41.3985 34 41.6016 34C41.8516 33.8985 42.086 33.8516 42.3125 33.8359ZM79 60C78 61.3984 76.6016 63.2031 76.3985 65.6016C76.3985 66 76.3985 66.2031 76.1954 66.6016C77.7969 67 79.2032 67 80.6016 66.8047C83.8047 66.3984 86.0001 64.7969 86.3985 64.3984C87.7969 63.3984 89.6016 61.3984 89.1954 60.6016C89.0001 60.2031 88.3985 60.3984 85.1954 60.6016C84.3985 60.6016 82.0001 61.2031 80.3985 60.8047H80.0001C79.6016 60.6016 79.2032 60.3984 79 60ZM44.1954 64C43.7969 64.6016 43.2032 65 42.8047 65.3984C41.2032 66.3984 39.1954 67.2031 37.1954 67.6016C35.3985 68.2031 34.3985 68.2031 34.3985 68.8047C34.1954 69.6016 36.1954 70.6016 37.1954 71C40.6016 72.3984 44 71.6016 44.6016 71.3984C45.0001 71.1953 46.0001 70.7969 47.0001 70.1953C47.0001 68 46.8047 66 46.6016 64.3984V64.1953H46.3985C45.7969 64.1953 45 64.2031 44.1954 64Z" fill="#1E1E1E"/>
</svg>
